General
Complete name           Shoot.On.Sight.2007.NORDiC.x264.AC3(5.1).mkv.Zen_Bud
Format                           : Matroska
File size                        : 1.44 GiB
Duration                         : 1h 49mn
Overall bit rate                 : 1 871 Kbps
Writing application              : HandBrake svn3482
Writing library                  : libmkv 0.6.4.1

Video

Format                           : AVC
Duration                         : 1h 49mn
Bit rate                         : 1 386 Kbps
Width                            : 706 pixels
Height                           : 572 pixels
Display aspect ratio             : 16:9
Stream size                      : 1.06 GiB (74%)
Writing library                  : x264 core 104


Audio

Format                           : AC-3
Duration                         : 1h 49mn
Bit rate                         : 448 Kbps
Channel(s)                       : 6 channels
Channel positions                : Front: L C R, Side: L R, LFE
Sampling rate                    : 48.0 KHz
Stream size                      : 352 MiB (24%)
Language                         : English

Text #1
Language                         : Swedish

Text #2
Language                         : Norwegian

Text #3
Language                         : Danish

Text #4
Language                         : Finnish

Menu
00:00:00.000                     : Chapter  1
00:09:15.480                     : Chapter  2

